<svg width="240" height="64" viewBox="0 0 240 64" fill="none" xmlns="http://www.w3.org/2000/svg">
  <rect width="52" height="52" rx="16" y="6" fill="#0D4E5C"/>
  <path d="M15 18H22V46H15V18Z" fill="white"/>
  <path d="M28 18H42V25H35V46H28V18Z" fill="#E87A3E"/>
  <path d="M72.432 43V21.304H78.32V31L88.816 21.304H96.656L86.384 30.584L97.008 43H89.712L82.432 34.456L78.32 38.184V43H72.432Z" fill="#13212A"/>
  <path d="M108.335 43.416C103.231 43.416 99.3428 39.912 99.3428 34.84C99.3428 29.704 103.263 26.232 108.399 26.232C113.535 26.232 117.455 29.704 117.455 34.84C117.455 39.912 113.503 43.416 108.335 43.416ZM108.399 38.728C110.607 38.728 112.015 37.064 112.015 34.84C112.015 32.568 110.607 30.888 108.399 30.888C106.191 30.888 104.783 32.568 104.783 34.84C104.783 37.064 106.191 38.728 108.399 38.728Z" fill="#13212A"/>
  <path d="M126.861 43V31.08H121.965V26.648H126.861V25.592C126.861 21.48 129.325 19.096 133.645 19.096C135.197 19.096 136.669 19.368 137.565 19.816L136.413 23.96C136.013 23.768 135.437 23.624 134.797 23.624C133.565 23.624 132.749 24.264 132.749 25.8V26.648H137.053V31.08H132.749V43H126.861Z" fill="#13212A"/>
  <path d="M148.706 43.416C145.394 43.416 143.378 41.752 143.378 38.168V31.08H140.354V26.648H143.378V22.344H149.266V26.648H154.242V31.08H149.266V36.856C149.266 37.944 149.874 38.552 150.93 38.552C151.746 38.552 152.514 38.312 152.962 37.944L154.194 42.104C153.362 42.856 151.874 43.416 148.706 43.416Z" fill="#13212A"/>
  <path d="M164.718 43.416C162.03 43.416 159.278 42.504 157.614 41.096L160.03 37.432C161.662 38.632 163.598 39.304 165.182 39.304C166.558 39.304 167.214 38.92 167.214 38.264C167.214 36.296 158.238 38.152 158.238 31.688C158.238 28.68 160.862 26.232 165.486 26.232C168.334 26.232 170.574 27 172.19 28.248L169.934 31.816C168.958 30.824 167.118 30.184 165.518 30.184C164.35 30.184 163.598 30.52 163.598 31.224C163.598 33.016 172.558 31.288 172.558 37.912C172.558 41.192 169.63 43.416 164.718 43.416Z" fill="#13212A"/>
</svg>
